<?xml version="1.0" encoding="iso-8859-1"?>
<!-- Generator: Adobe Illustrator 19.0.0, SVG Export Plug-In . SVG Version: 6.00 Build 0)  -->
<svg version="1.1" id="Capa_1" xmlns="http://www.w3.org/2000/svg" xmlns:xlink="http://www.w3.org/1999/xlink" x="0px" y="0px"
	 viewBox="0 0 512.014 512.014" style="enable-background:new 0 0 512.014 512.014;" xml:space="preserve">
<g>
	<path style="fill:#FFFFFF;" d="M298.68,68.913c21.047,4.821,41.132,13.15,59.413,24.64l33.707-33.6
		c3.993-4.153,10.597-4.283,14.75-0.29c0.098,0.095,0.195,0.191,0.29,0.29l45.227,45.227c4.153,3.993,4.283,10.597,0.29,14.75
		c-0.095,0.098-0.191,0.195-0.29,0.29l-33.6,33.707c11.49,18.281,19.819,38.366,24.64,59.413h47.573
		c5.891,0,10.667,4.776,10.667,10.667v64c0,5.891-4.776,10.667-10.667,10.667h-47.573c-4.821,21.047-13.15,41.132-24.64,59.413
		l33.6,33.707c4.153,3.993,4.283,10.597,0.29,14.75c-0.095,0.098-0.191,0.195-0.29,0.29L406.84,452.06
		c-3.993,4.153-10.597,4.283-14.75,0.29c-0.098-0.095-0.195-0.191-0.29-0.29l-33.707-33.6c-18.281,11.49-38.366,19.819-59.413,24.64
		v47.573c0,5.891-4.776,10.667-10.667,10.667H266.68V10.673h21.333c5.891,0,10.667,4.776,10.667,10.667V68.913z"/>
	<path style="fill:#FFFFFF;" d="M213.347,10.673c-82.475,0-149.333,66.859-149.333,149.333V180.7L10.68,277.34
		c-0.244,11.538,8.911,21.089,20.449,21.333c0.295,0.006,0.589,0.006,0.884,0c11.929,0.609,23.26,5.406,32,13.547v39.787
		c-0.369,17.304,13.359,31.631,30.663,32c0.446,0.01,0.891,0.01,1.337,0h64c0,0,21.333,0,21.333,32v85.333h85.333V10.673H213.347z"
		/>
	<path style="fill:#FFFFFF;" d="M245.347,74.673l37.547,75.2c-16.427,2.987-18.027,20.8-37.547,20.8s-21.12-17.813-37.547-20.8
		L245.347,74.673z"/>
</g>
<g>
	<path style="fill:#87D2F3;" d="M288.014,298.673v64h-42.667v-192c19.52,0,21.12-17.813,37.547-20.8l5.12,10.133V298.673z"/>
	<path style="fill:#87D2F3;" d="M245.347,170.673v192H202.68V160.007l5.12-10.133C224.227,152.86,225.827,170.673,245.347,170.673z"
		/>
</g>
<g>
	<path style="fill:#2170A6;" d="M490.68,202.673h-39.264c-4.502-16.461-11.064-32.287-19.531-47.104l27.616-27.733
		c8.373-8.07,8.619-21.399,0.55-29.773c-0.145-0.151-0.293-0.3-0.443-0.446l-45.131-45.12c-8.377-8.211-21.767-8.263-30.208-0.117
		l-27.819,27.733c-14.818-8.459-30.644-15.014-47.104-19.509V21.34c0-11.782-9.551-21.333-21.333-21.333H266.68V21.34h21.333v47.573
		c-0.001,4.975,3.438,9.291,8.288,10.4c19.885,4.548,38.86,12.417,56.128,23.275c4.207,2.637,9.678,2.022,13.195-1.483
		l33.675-33.611l45.216,45.184l-33.6,33.717c-3.505,3.517-4.12,8.987-1.483,13.195c10.858,17.268,18.726,36.244,23.275,56.128
		c1.109,4.85,5.425,8.289,10.4,8.288h47.573v64h-47.573c-4.975-0.001-9.29,3.438-10.4,8.288
		c-4.548,19.884-12.417,38.86-23.275,56.128c-2.637,4.207-2.022,9.678,1.483,13.195l33.611,33.675l-45.184,45.216l-33.717-33.6
		c-3.517-3.505-8.987-4.12-13.195-1.483c-17.268,10.858-36.243,18.726-56.128,23.275c-4.85,1.109-8.289,5.425-8.288,10.4v47.573
		H266.68v21.333h21.333c11.782,0,21.333-9.551,21.333-21.333v-39.264c16.461-4.502,32.287-11.064,47.104-19.531l27.733,27.616
		c8.379,8.22,21.782,8.268,30.219,0.107l45.12-45.131c8.373-8.07,8.619-21.399,0.549-29.773c-0.142-0.147-0.286-0.292-0.432-0.435
		l-27.733-27.819c8.459-14.818,15.014-30.644,19.509-47.104h39.264c11.782,0,21.333-9.551,21.333-21.333v-64
		C512.014,212.225,502.462,202.673,490.68,202.673L490.68,202.673z"/>
	<path style="fill:#2170A6;" d="M274.147,167.58c1.173-1.173,2.133-2.133,3.2-3.04v134.133c-0.502,17.171,13.01,31.498,30.181,32
		c0.606,0.018,1.213,0.018,1.819,0h21.333c17.171,0.502,31.498-13.01,32-30.181c0.018-0.606,0.018-1.213,0-1.819v-74.667h-21.333
		v74.667c0.527,5.365-3.395,10.14-8.76,10.667c-0.634,0.062-1.273,0.062-1.907,0h-21.333c-5.365,0.527-10.14-3.395-10.667-8.76
		c-0.062-0.634-0.062-1.273,0-1.907V160.007c0.002-1.671-0.389-3.319-1.141-4.811l-42.667-85.28
		c-3.12-5.272-9.924-7.017-15.197-3.897c-1.606,0.95-2.946,2.291-3.897,3.897l-42.667,85.28c-0.737,1.496-1.113,3.143-1.099,4.811
		v138.539c0.578,5.377-3.312,10.205-8.689,10.783c-0.657,0.071-1.32,0.075-1.978,0.012h-21.205
		c-5.377,0.578-10.205-3.312-10.783-8.689c-0.071-0.657-0.075-1.32-0.012-1.978v-74.667h-21.333v74.667
		c-0.502,17.171,13.01,31.498,30.181,32c0.606,0.018,1.213,0.018,1.819,0h21.333c17.171,0.502,31.498-13.01,32-30.181
		c0.018-0.606,0.018-1.213,0-1.819V164.54c0.96,0.875,1.984,1.867,3.2,3.04c4.892,5.564,11.138,9.771,18.133,12.213v214.88h21.333
		v-214.88C263.008,177.351,269.254,173.144,274.147,167.58L274.147,167.58z M222.307,144.54l13.653-27.2h18.773l13.611,27.211
		c-3.342,2.331-6.44,4.994-9.248,7.947c-5.195,5.205-7.744,7.467-13.749,7.467c-6.005,0-8.533-2.304-13.749-7.467
		c-2.812-2.952-5.91-5.617-9.248-7.957H222.307z"/>
	<path style="fill:#2170A6;" d="M192.014,416.007c0-33.749-20.928-42.667-32-42.667h-64c-11.07,0.712-20.621-7.685-21.333-18.754
		c-0.055-0.859-0.055-1.72,0-2.579v-39.765c-0.002-3.051-1.31-5.956-3.595-7.979c-10.694-9.866-24.536-15.625-39.072-16.256
		c-5.135,0.624-9.803-3.033-10.427-8.167c-0.006-0.047-0.011-0.095-0.016-0.142l51.787-93.867c0.863-1.58,1.318-3.351,1.323-5.152
		v-20.672C74.768,83.46,136.8,21.428,213.347,21.34h21.333V0.007h-21.333c-88.324,0.1-159.9,71.676-160,160v17.931L1.336,272.188
		c-0.866,1.579-1.321,3.351-1.323,5.152c-0.502,17.171,13.01,31.498,30.181,32c0.606,0.018,1.213,0.018,1.819,0
		c7.758,0.431,15.2,3.218,21.333,7.989v34.677c-0.67,22.895,17.347,41.997,40.242,42.667c0.808,0.024,1.617,0.024,2.425,0h63.701
		c1.824,0.128,10.965,1.707,10.965,21.333v85.333c0,5.891,4.776,10.667,10.667,10.667h53.333v-21.333h-42.667V416.007z"/>
	<path style="fill:#2170A6;" d="M234.68,416.007h21.333v21.333H234.68V416.007z"/>
	<path style="fill:#2170A6;" d="M128.014,181.34h21.333v21.333h-21.333V181.34z"/>
	<path style="fill:#2170A6;" d="M341.347,181.34h21.333v21.333h-21.333V181.34z"/>
</g>
<g>
</g>
<g>
</g>
<g>
</g>
<g>
</g>
<g>
</g>
<g>
</g>
<g>
</g>
<g>
</g>
<g>
</g>
<g>
</g>
<g>
</g>
<g>
</g>
<g>
</g>
<g>
</g>
<g>
</g>
</svg>
